<?xml version="1.0" encoding="UTF-8" standalone="no"?>
<!DOCTYPE svg PUBLIC "-//W3C//DTD SVG 1.1//EN"
 "http://www.w3.org/Graphics/SVG/1.1/DTD/svg11.dtd">
<!-- Generated by graphviz version 14.1.5 (20260411.2331)
 -->
<!-- Title: JobFSM Pages: 1 -->
<svg width="1095pt" height="529pt"
 viewBox="0.00 0.00 1095.00 529.00" xmlns="http://www.w3.org/2000/svg" xmlns:xlink="http://www.w3.org/1999/xlink">
<g id="graph0" class="graph" transform="scale(1 1) rotate(0) translate(25.2 511.03)">
<title>JobFSM</title>
<text xml:space="preserve" text-anchor="start" x="448.84" y="-7" font-family="TT Commons Pro Trial" font-size="10.00" fill="#475569">Arcp::Job FSM — spec §7 §8 §9 §12</text>
<!-- submit_sent -->
<g id="node1" class="node">
<title>submit_sent</title>
<path fill="#3b82f6" stroke="#2563eb" stroke-width="1.4" d="M774.37,-493.03C774.37,-493.03 705.19,-493.03 705.19,-493.03 699.19,-493.03 693.19,-487.03 693.19,-481.03 693.19,-481.03 693.19,-469.03 693.19,-469.03 693.19,-463.03 699.19,-457.03 705.19,-457.03 705.19,-457.03 774.37,-457.03 774.37,-457.03 780.37,-457.03 786.37,-463.03 786.37,-469.03 786.37,-469.03 786.37,-481.03 786.37,-481.03 786.37,-487.03 780.37,-493.03 774.37,-493.03"/>
<text xml:space="preserve" text-anchor="start" x="709.03" y="-472.13" font-family="TT Commons Pro Trial" font-weight="bold" font-size="12.00" fill="white">submit_sent</text>
</g>
<!-- accepted -->
<g id="node2" class="node">
<title>accepted</title>
<path fill="white" stroke="#cbd5e1" d="M565.12,-405.78C565.12,-405.78 512.44,-405.78 512.44,-405.78 506.44,-405.78 500.44,-399.78 500.44,-393.78 500.44,-393.78 500.44,-381.78 500.44,-381.78 500.44,-375.78 506.44,-369.78 512.44,-369.78 512.44,-369.78 565.12,-369.78 565.12,-369.78 571.12,-369.78 577.12,-375.78 577.12,-381.78 577.12,-381.78 577.12,-393.78 577.12,-393.78 577.12,-399.78 571.12,-405.78 565.12,-405.78"/>
<text xml:space="preserve" text-anchor="middle" x="538.78" y="-384.45" font-family="TT Commons Pro Trial" font-size="11.00" fill="#1f2937">accepted</text>
</g>
<!-- submit_sent&#45;&gt;accepted -->
<g id="edge1" class="edge">
<title>submit_sent&#45;&gt;accepted</title>
<path fill="none" stroke="#64748b" stroke-width="1.2" d="M698.14,-456.37C665.24,-442.41 619.36,-422.95 585.27,-408.5"/>
<polygon fill="#64748b" stroke="#64748b" stroke-width="1.2" points="578.66,-405.69 586.88,-405.51 580.8,-406.49 585.6,-408.53 585.56,-408.62 585.52,-408.71 580.73,-406.68 584.25,-411.73 578.66,-405.69"/>
<text xml:space="preserve" text-anchor="middle" x="695.94" y="-428.48" font-family="TT Commons Pro Trial" font-size="9.00" fill="#64748b">recv job.accepted (§7.1)</text>
</g>
<!-- err_budget -->
<g id="node9" class="node">
<title>err_budget</title>
<ellipse fill="#fee2e2" stroke="#cbd5e1" cx="939.78" cy="-126.39" rx="100.89" ry="100.89"/>
<ellipse fill="none" stroke="#cbd5e1" cx="939.78" cy="-126.39" rx="104.89" ry="104.89"/>
<text xml:space="preserve" text-anchor="middle" x="939.78" y="-123.06" font-family="TT Commons Pro Trial" font-size="11.00" fill="#1f2937">error_budget_exhausted</text>
</g>
<!-- submit_sent&#45;&gt;err_budget -->
<g id="edge11" class="edge">
<title>submit_sent&#45;&gt;err_budget</title>
<path fill="none" stroke="#cbd5e1" d="M757.13,-456.41C790.05,-422.03 861.84,-342.36 901.78,-262.53 905.83,-254.44 909.51,-245.85 912.83,-237.08"/>
<polygon fill="#cbd5e1" stroke="#cbd5e1" points="915.36,-230.13 915.96,-238.33 914.5,-232.5 912.79,-237.17 912.79,-237.17 912.79,-237.17 914.5,-232.5 909.62,-236.02 915.36,-230.13"/>
<text xml:space="preserve" text-anchor="middle" x="887.94" y="-341.23" font-family="TT Commons Pro Trial" font-size="9.00" fill="#64748b">job.reject budget</text>
</g>
<!-- running -->
<g id="node3" class="node">
<title>running</title>
<path fill="#f59e0b" stroke="#d97706" stroke-width="1.4" d="M562.87,-318.53C562.87,-318.53 514.69,-318.53 514.69,-318.53 508.69,-318.53 502.69,-312.53 502.69,-306.53 502.69,-306.53 502.69,-294.53 502.69,-294.53 502.69,-288.53 508.69,-282.53 514.69,-282.53 514.69,-282.53 562.87,-282.53 562.87,-282.53 568.87,-282.53 574.87,-288.53 574.87,-294.53 574.87,-294.53 574.87,-306.53 574.87,-306.53 574.87,-312.53 568.87,-318.53 562.87,-318.53"/>
<text xml:space="preserve" text-anchor="start" x="518.53" y="-297.63" font-family="TT Commons Pro Trial" font-weight="bold" font-size="12.00" fill="white">running</text>
</g>
<!-- accepted&#45;&gt;running -->
<g id="edge2" class="edge">
<title>accepted&#45;&gt;running</title>
<path fill="none" stroke="#64748b" stroke-width="1.2" d="M538.78,-369.53C538.78,-357.59 538.78,-341.48 538.78,-327.93"/>
<polygon fill="#64748b" stroke="#64748b" stroke-width="1.2" points="538.78,-320.51 542.16,-328.01 538.88,-322.8 538.88,-328.01 538.78,-328.01 538.68,-328.01 538.68,-322.8 535.41,-328.01 538.78,-320.51"/>
<text xml:space="preserve" text-anchor="middle" x="582.28" y="-341.23" font-family="TT Commons Pro Trial" font-size="9.00" fill="#64748b">recv job.running (§7.6)</text>
</g>
<!-- err_cancelled -->
<g id="node6" class="node">
<title>err_cancelled</title>
<ellipse fill="#fee2e2" stroke="#cbd5e1" cx="76.78" cy="-126.39" rx="72.78" ry="72.78"/>
<ellipse fill="none" stroke="#cbd5e1" cx="76.78" cy="-126.39" rx="76.78" ry="76.78"/>
<text xml:space="preserve" text-anchor="middle" x="76.78" y="-123.06" font-family="TT Commons Pro Trial" font-size="11.00" fill="#1f2937">error_cancelled</text>
</g>
<!-- accepted&#45;&gt;err_cancelled -->
<g id="edge10" class="edge">
<title>accepted&#45;&gt;err_cancelled</title>
<path fill="none" stroke="#cbd5e1" d="M500.01,-379.69C426.58,-364.49 265.65,-322.46 165.78,-231.28 153.27,-219.86 140.82,-206.73 129.38,-193.75"/>
<polygon fill="#cbd5e1" stroke="#cbd5e1" points="124.64,-188.31 132.11,-191.75 126.3,-190.22 129.56,-193.96 129.56,-193.96 129.56,-193.96 126.3,-190.22 127.02,-196.18 124.64,-188.31"/>
<text xml:space="preserve" text-anchor="middle" x="338.97" y="-297.6" font-family="TT Commons Pro Trial" font-size="9.00" fill="#64748b">cancel before run</text>
</g>
<!-- running_sub -->
<g id="node4" class="node">
<title>running_sub</title>
<path fill="white" stroke="#cbd5e1" d="M797.75,-144.39C797.75,-144.39 679.82,-144.39 679.82,-144.39 673.82,-144.39 667.82,-138.39 667.82,-132.39 667.82,-132.39 667.82,-120.39 667.82,-120.39 667.82,-114.39 673.82,-108.39 679.82,-108.39 679.82,-108.39 797.75,-108.39 797.75,-108.39 803.75,-108.39 809.75,-114.39 809.75,-120.39 809.75,-120.39 809.75,-132.39 809.75,-132.39 809.75,-138.39 803.75,-144.39 797.75,-144.39"/>
<text xml:space="preserve" text-anchor="middle" x="738.78" y="-123.06" font-family="TT Commons Pro Trial" font-size="11.00" fill="#1f2937">running_with_subscriber</text>
</g>
<!-- running&#45;&gt;running_sub -->
<g id="edge3" class="edge">
<title>running&#45;&gt;running_sub</title>
<path fill="none" stroke="#64748b" stroke-width="1.2" d="M575.35,-283.13C587.81,-277.12 601.64,-269.95 613.78,-262.53 633.63,-250.39 639.05,-247.45 655.78,-231.28 681.44,-206.49 706.36,-173.77 722.09,-151.73"/>
<polygon fill="#64748b" stroke="#64748b" stroke-width="1.2" points="726.22,-145.89 724.65,-153.96 724.98,-147.82 721.97,-152.07 721.89,-152.02 721.81,-151.96 724.82,-147.7 719.14,-150.07 726.22,-145.89"/>
<text xml:space="preserve" text-anchor="middle" x="665.32" y="-253.98" font-family="TT Commons Pro Trial" font-size="9.00" fill="#64748b">attach subscriber</text>
</g>
<!-- success -->
<g id="node5" class="node">
<title>success</title>
<ellipse fill="#dcfce7" stroke="#cbd5e1" cx="229.78" cy="-126.39" rx="48.92" ry="48.92"/>
<ellipse fill="none" stroke="#cbd5e1" cx="229.78" cy="-126.39" rx="52.92" ry="52.92"/>
<text xml:space="preserve" text-anchor="middle" x="229.78" y="-123.06" font-family="TT Commons Pro Trial" font-size="11.00" fill="#1f2937">success</text>
</g>
<!-- running&#45;&gt;success -->
<g id="edge5" class="edge">
<title>running&#45;&gt;success</title>
<path fill="none" stroke="#64748b" stroke-width="1.2" d="M502.3,-299.27C449.67,-296.94 352.33,-285.03 293.78,-231.28 278.9,-217.61 266.22,-199.71 256.17,-182.62"/>
<polygon fill="#64748b" stroke="#64748b" stroke-width="1.2" points="252.46,-176.11 259.11,-180.96 253.68,-178.05 256.26,-182.58 256.18,-182.63 256.09,-182.68 253.51,-178.15 253.24,-184.3 252.46,-176.11"/>
<text xml:space="preserve" text-anchor="middle" x="365.79" y="-253.98" font-family="TT Commons Pro Trial" font-size="9.00" fill="#64748b">recv job.result</text>
</g>
<!-- running&#45;&gt;err_cancelled -->
<g id="edge6" class="edge">
<title>running&#45;&gt;err_cancelled</title>
<path fill="none" stroke="#cbd5e1" d="M502.14,-296.53C419.35,-289.16 220.77,-268.07 165.78,-231.28 151.45,-221.69 138.09,-209.18 126.3,-196.18"/>
<polygon fill="#cbd5e1" stroke="#cbd5e1" points="121.44,-190.68 128.94,-194.07 123.12,-192.58 126.41,-196.3 126.41,-196.3 126.41,-196.3 123.12,-192.58 123.88,-198.54 121.44,-190.68"/>
<text xml:space="preserve" text-anchor="middle" x="276.42" y="-253.98" font-family="TT Commons Pro Trial" font-size="9.00" fill="#64748b">job.cancel ack</text>
</g>
<!-- err_timeout -->
<g id="node7" class="node">
<title>err_timeout</title>
<ellipse fill="#fee2e2" stroke="#cbd5e1" cx="375.78" cy="-126.39" rx="66.42" ry="66.42"/>
<ellipse fill="none" stroke="#cbd5e1" cx="375.78" cy="-126.39" rx="70.42" ry="70.42"/>
<text xml:space="preserve" text-anchor="middle" x="375.78" y="-123.06" font-family="TT Commons Pro Trial" font-size="11.00" fill="#1f2937">error_timeout</text>
</g>
<!-- running&#45;&gt;err_timeout -->
<g id="edge7" class="edge">
<title>running&#45;&gt;err_timeout</title>
<path fill="none" stroke="#cbd5e1" d="M502.24,-296.39C476.92,-292.38 444.05,-283.26 422.78,-262.53 406.77,-246.93 396.21,-225.59 389.24,-204.48"/>
<polygon fill="#cbd5e1" stroke="#cbd5e1" points="387.1,-197.58 392.55,-203.75 387.85,-200 389.32,-204.75 389.32,-204.75 389.32,-204.75 387.85,-200 386.1,-205.74 387.1,-197.58"/>
<text xml:space="preserve" text-anchor="middle" x="478.28" y="-253.98" font-family="TT Commons Pro Trial" font-size="9.00" fill="#64748b">deadline_ms exceeded (§9.5)</text>
</g>
<!-- err_lease -->
<g id="node8" class="node">
<title>err_lease</title>
<ellipse fill="#fee2e2" stroke="#cbd5e1" cx="556.78" cy="-126.39" rx="83.92" ry="83.92"/>
<ellipse fill="none" stroke="#cbd5e1" cx="556.78" cy="-126.39" rx="87.92" ry="87.92"/>
<text xml:space="preserve" text-anchor="middle" x="556.78" y="-123.06" font-family="TT Commons Pro Trial" font-size="11.00" fill="#1f2937">error_lease_expired</text>
</g>
<!-- running&#45;&gt;err_lease -->
<g id="edge8" class="edge">
<title>running&#45;&gt;err_lease</title>
<path fill="none" stroke="#cbd5e1" d="M538.64,-281.84C538.6,-275.72 538.55,-268.83 538.53,-262.53 538.52,-257.53 538.17,-256.27 538.53,-251.28 539.23,-241.8 540.22,-231.95 541.38,-222.13"/>
<polygon fill="#cbd5e1" stroke="#cbd5e1" points="542.29,-214.73 544.72,-222.59 541.98,-217.24 541.37,-222.17 541.37,-222.17 541.37,-222.17 541.98,-217.24 538.02,-221.76 542.29,-214.73"/>
<text xml:space="preserve" text-anchor="middle" x="575.66" y="-253.98" font-family="TT Commons Pro Trial" font-size="9.00" fill="#64748b">lease expired (§9.6)</text>
</g>
<!-- running&#45;&gt;err_budget -->
<g id="edge9" class="edge">
<title>running&#45;&gt;err_budget</title>
<path fill="none" stroke="#cbd5e1" d="M575.26,-300.49C625.5,-300.43 717.7,-295.28 787.78,-262.53 815.12,-249.75 841.15,-230.45 863.69,-210.39"/>
<polygon fill="#cbd5e1" stroke="#cbd5e1" points="869.05,-205.54 865.76,-213.08 867.18,-207.24 863.49,-210.57 863.49,-210.57 863.49,-210.57 867.18,-207.24 861.23,-208.07 869.05,-205.54"/>
<text xml:space="preserve" text-anchor="middle" x="852.18" y="-253.98" font-family="TT Commons Pro Trial" font-size="9.00" fill="#64748b">budget exhausted (§12)</text>
</g>
<!-- running_sub&#45;&gt;running -->
<g id="edge4" class="edge">
<title>running_sub&#45;&gt;running</title>
<path fill="none" stroke="#64748b" stroke-width="1.2" d="M739.62,-144.68C740.01,-173.43 736.35,-231.01 703.78,-262.53 686.94,-278.83 626.94,-289.19 584.15,-294.68"/>
<polygon fill="#64748b" stroke="#64748b" stroke-width="1.2" points="576.76,-295.59 583.79,-291.32 579.02,-295.21 584.19,-294.57 584.2,-294.67 584.21,-294.77 579.04,-295.41 584.62,-298.02 576.76,-295.59"/>
<text xml:space="preserve" text-anchor="middle" x="747.98" y="-253.98" font-family="TT Commons Pro Trial" font-size="9.00" fill="#64748b">subscriber detach</text>
</g>
</g>
</svg>
