<?xml version="1.0" encoding="UTF-8" standalone="no"?>
<!DOCTYPE svg PUBLIC "-//W3C//DTD SVG 1.1//EN"
 "http://www.w3.org/Graphics/SVG/1.1/DTD/svg11.dtd">
<!-- Generated by graphviz version 14.1.5 (20260411.2331)
 -->
<!-- Title: ResultChunkSequence Pages: 1 -->
<svg width="1011pt" height="735pt"
 viewBox="0.00 0.00 1011.00 735.00" xmlns="http://www.w3.org/2000/svg" xmlns:xlink="http://www.w3.org/1999/xlink">
<g id="graph0" class="graph" transform="scale(1 1) rotate(0) translate(25.2 717.25)">
<title>ResultChunkSequence</title>
<text xml:space="preserve" text-anchor="start" x="400.62" y="-7" font-family="Helvetica,sans-Serif" font-size="10.00" fill="#475569">result_chunk streaming — spec §8.4</text>
<g id="clust1" class="cluster">
<title>cluster_agent</title>
<path fill="#f1f5f9" stroke="#e2e8f0" d="M20,-251.5C20,-251.5 270,-251.5 270,-251.5 276,-251.5 282,-257.5 282,-263.5 282,-263.5 282,-679.25 282,-679.25 282,-685.25 276,-691.25 270,-691.25 270,-691.25 20,-691.25 20,-691.25 14,-691.25 8,-685.25 8,-679.25 8,-679.25 8,-263.5 8,-263.5 8,-257.5 14,-251.5 20,-251.5"/>
<text xml:space="preserve" text-anchor="start" x="24" y="-257.85" font-family="Helvetica,sans-Serif" font-weight="bold" font-size="12.00" fill="#475569">Agent</text>
</g>
<g id="clust2" class="cluster">
<title>cluster_runtime</title>
<path fill="#f8fafc" stroke="#e2e8f0" d="M302,-135C302,-135 474,-135 474,-135 480,-135 486,-141 486,-147 486,-147 486,-591.5 486,-591.5 486,-597.5 480,-603.5 474,-603.5 474,-603.5 302,-603.5 302,-603.5 296,-603.5 290,-597.5 290,-591.5 290,-591.5 290,-147 290,-147 290,-141 296,-135 302,-135"/>
<text xml:space="preserve" text-anchor="start" x="306" y="-141.35" font-family="Helvetica,sans-Serif" font-weight="bold" font-size="12.00" fill="#475569">Arcp::Runtime</text>
</g>
<g id="clust3" class="cluster">
<title>cluster_client</title>
<path fill="#f1f5f9" stroke="#e2e8f0" d="M757,-27.25C757,-27.25 941,-27.25 941,-27.25 947,-27.25 953,-33.25 953,-39.25 953,-39.25 953,-503.75 953,-503.75 953,-509.75 947,-515.75 941,-515.75 941,-515.75 757,-515.75 757,-515.75 751,-515.75 745,-509.75 745,-503.75 745,-503.75 745,-39.25 745,-39.25 745,-33.25 751,-27.25 757,-27.25"/>
<text xml:space="preserve" text-anchor="start" x="761" y="-33.6" font-family="Helvetica,sans-Serif" font-weight="bold" font-size="12.00" fill="#475569">Arcp::Client</text>
</g>
<!-- agent_1 -->
<g id="node1" class="node">
<title>agent_1</title>
<path fill="#3b82f6" stroke="#2563eb" stroke-width="1.4" d="M256.09,-677.25C256.09,-677.25 33.91,-677.25 33.91,-677.25 27.91,-677.25 21.91,-671.25 21.91,-665.25 21.91,-665.25 21.91,-653.25 21.91,-653.25 21.91,-647.25 27.91,-641.25 33.91,-641.25 33.91,-641.25 256.09,-641.25 256.09,-641.25 262.09,-641.25 268.09,-647.25 268.09,-653.25 268.09,-653.25 268.09,-665.25 268.09,-665.25 268.09,-671.25 262.09,-677.25 256.09,-677.25"/>
<text xml:space="preserve" text-anchor="start" x="37.75" y="-655.23" font-family="Helvetica,sans-Serif" font-weight="bold" font-size="12.00" fill="white">begin streaming — result_id allocated</text>
</g>
<!-- agent_2 -->
<g id="node2" class="node">
<title>agent_2</title>
<path fill="white" stroke="#cbd5e1" d="M255.97,-589.5C255.97,-589.5 78.03,-589.5 78.03,-589.5 72.04,-589.5 66.03,-583.5 66.03,-577.5 66.03,-577.5 66.03,-565.5 66.03,-565.5 66.03,-559.5 72.03,-553.5 78.03,-553.5 78.03,-553.5 255.97,-553.5 255.97,-553.5 261.97,-553.5 267.97,-559.5 267.97,-565.5 267.97,-565.5 267.97,-577.5 267.97,-577.5 267.97,-583.5 261.97,-589.5 255.97,-589.5"/>
<text xml:space="preserve" text-anchor="middle" x="167" y="-567.05" font-family="Helvetica,sans-Serif" font-size="11.00" fill="#1f2937">emit result_chunk seq=0 more=true</text>
</g>
<!-- agent_1&#45;&gt;agent_2 -->
<!-- runtime_1 -->
<g id="node6" class="node">
<title>runtime_1</title>
<path fill="white" stroke="#cbd5e1" d="M431.59,-589.5C431.59,-589.5 344.41,-589.5 344.41,-589.5 338.41,-589.5 332.41,-583.5 332.41,-577.5 332.41,-577.5 332.41,-565.5 332.41,-565.5 332.41,-559.5 338.41,-553.5 344.41,-553.5 344.41,-553.5 431.59,-553.5 431.59,-553.5 437.59,-553.5 443.59,-559.5 443.59,-565.5 443.59,-565.5 443.59,-577.5 443.59,-577.5 443.59,-583.5 437.59,-589.5 431.59,-589.5"/>
<text xml:space="preserve" text-anchor="middle" x="388" y="-567.05" font-family="Helvetica,sans-Serif" font-size="11.00" fill="#1f2937">register result_id</text>
</g>
<!-- agent_1&#45;&gt;runtime_1 -->
<g id="edge13" class="edge">
<title>agent_1&#45;&gt;runtime_1</title>
<path fill="none" stroke="#64748b" stroke-width="1.2" d="M195.06,-640.59C234.31,-626.73 288.99,-607.44 330.13,-592.92"/>
<polygon fill="#64748b" stroke="#64748b" stroke-width="1.2" points="337.05,-590.48 331.1,-596.16 334.92,-591.34 330.01,-593.07 329.97,-592.98 329.94,-592.88 334.86,-591.15 328.85,-589.79 337.05,-590.48"/>
<text xml:space="preserve" text-anchor="middle" x="299.29" y="-612.7" font-family="Helvetica,sans-Serif" font-size="9.00" fill="#64748b">open stream</text>
</g>
<!-- agent_3 -->
<g id="node3" class="node">
<title>agent_3</title>
<path fill="white" stroke="#cbd5e1" d="M255.97,-501.75C255.97,-501.75 78.03,-501.75 78.03,-501.75 72.04,-501.75 66.03,-495.75 66.03,-489.75 66.03,-489.75 66.03,-477.75 66.03,-477.75 66.03,-471.75 72.03,-465.75 78.03,-465.75 78.03,-465.75 255.97,-465.75 255.97,-465.75 261.97,-465.75 267.97,-471.75 267.97,-477.75 267.97,-477.75 267.97,-489.75 267.97,-489.75 267.97,-495.75 261.97,-501.75 255.97,-501.75"/>
<text xml:space="preserve" text-anchor="middle" x="167" y="-479.3" font-family="Helvetica,sans-Serif" font-size="11.00" fill="#1f2937">emit result_chunk seq=1 more=true</text>
</g>
<!-- agent_2&#45;&gt;agent_3 -->
<!-- runtime_2 -->
<g id="node7" class="node">
<title>runtime_2</title>
<path fill="white" stroke="#cbd5e1" d="M435.72,-501.75C435.72,-501.75 340.28,-501.75 340.28,-501.75 334.28,-501.75 328.28,-495.75 328.28,-489.75 328.28,-489.75 328.28,-477.75 328.28,-477.75 328.28,-471.75 334.28,-465.75 340.28,-465.75 340.28,-465.75 435.72,-465.75 435.72,-465.75 441.72,-465.75 447.72,-471.75 447.72,-477.75 447.72,-477.75 447.72,-489.75 447.72,-489.75 447.72,-495.75 441.72,-501.75 435.72,-501.75"/>
<text xml:space="preserve" text-anchor="middle" x="388" y="-479.3" font-family="Helvetica,sans-Serif" font-size="11.00" fill="#1f2937">relay chunk seq=0</text>
</g>
<!-- agent_2&#45;&gt;runtime_2 -->
<g id="edge14" class="edge">
<title>agent_2&#45;&gt;runtime_2</title>
<path fill="none" stroke="#64748b" stroke-width="1.2" d="M211.99,-553.04C247.54,-539.25 297.25,-519.96 334.78,-505.4"/>
<polygon fill="#64748b" stroke="#64748b" stroke-width="1.2" points="341.71,-502.71 335.94,-508.57 339.61,-503.63 334.75,-505.52 334.72,-505.42 334.68,-505.33 339.54,-503.45 333.5,-502.28 341.71,-502.71"/>
<text xml:space="preserve" text-anchor="middle" x="296.88" y="-524.95" font-family="Helvetica,sans-Serif" font-size="9.00" fill="#64748b">seq=0</text>
</g>
<!-- agent_final -->
<g id="node4" class="node">
<title>agent_final</title>
<path fill="white" stroke="#cbd5e1" d="M246.22,-416C246.22,-416 87.78,-416 87.78,-416 81.78,-416 75.78,-410 75.78,-404 75.78,-404 75.78,-392 75.78,-392 75.78,-386 81.78,-380 87.78,-380 87.78,-380 246.22,-380 246.22,-380 252.22,-380 258.22,-386 258.22,-392 258.22,-392 258.22,-404 258.22,-404 258.22,-410 252.22,-416 246.22,-416"/>
<text xml:space="preserve" text-anchor="middle" x="167" y="-393.55" font-family="Helvetica,sans-Serif" font-size="11.00" fill="#1f2937">result_chunk seq=2 more=false</text>
</g>
<!-- agent_3&#45;&gt;agent_final -->
<!-- runtime_relay -->
<g id="node8" class="node">
<title>runtime_relay</title>
<path fill="#f59e0b" stroke="#d97706" stroke-width="1.4" d="M443.97,-416C443.97,-416 332.03,-416 332.03,-416 326.03,-416 320.03,-410 320.03,-404 320.03,-404 320.03,-392 320.03,-392 320.03,-386 326.03,-380 332.03,-380 332.03,-380 443.97,-380 443.97,-380 449.97,-380 455.97,-386 455.97,-392 455.97,-392 455.97,-404 455.97,-404 455.97,-410 449.97,-416 443.97,-416"/>
<text xml:space="preserve" text-anchor="start" x="335.88" y="-393.98" font-family="Helvetica,sans-Serif" font-weight="bold" font-size="12.00" fill="white">relay chunk seq=1</text>
</g>
<!-- agent_3&#45;&gt;runtime_relay -->
<g id="edge15" class="edge">
<title>agent_3&#45;&gt;runtime_relay</title>
<path fill="none" stroke="#64748b" stroke-width="1.2" d="M213.06,-465.3C248.11,-452.01 296.45,-433.69 333.43,-419.68"/>
<polygon fill="#64748b" stroke="#64748b" stroke-width="1.2" points="340.25,-417.09 334.44,-422.91 338.15,-418 333.27,-419.85 333.24,-419.75 333.2,-419.66 338.08,-417.81 332.04,-416.6 340.25,-417.09"/>
<text xml:space="preserve" text-anchor="middle" x="296.88" y="-437.2" font-family="Helvetica,sans-Serif" font-size="9.00" fill="#64748b">seq=1</text>
</g>
<!-- agent_terminator -->
<g id="node5" class="node">
<title>agent_terminator</title>
<path fill="white" stroke="#cbd5e1" d="M256.22,-330.25C256.22,-330.25 73.78,-330.25 73.78,-330.25 67.78,-330.25 61.78,-324.25 61.78,-318.25 61.78,-318.25 61.78,-306.25 61.78,-306.25 61.78,-300.25 67.78,-294.25 73.78,-294.25 73.78,-294.25 256.22,-294.25 256.22,-294.25 262.22,-294.25 268.22,-300.25 268.22,-306.25 268.22,-306.25 268.22,-318.25 268.22,-318.25 268.22,-324.25 262.22,-330.25 256.22,-330.25"/>
<text xml:space="preserve" text-anchor="middle" x="165" y="-307.8" font-family="Helvetica,sans-Serif" font-size="11.00" fill="#1f2937">emit job.result {result_id, result_size}</text>
</g>
<!-- agent_final&#45;&gt;agent_terminator -->
<!-- runtime_final -->
<g id="node9" class="node">
<title>runtime_final</title>
<path fill="white" stroke="#cbd5e1" d="M460.09,-330.25C460.09,-330.25 315.91,-330.25 315.91,-330.25 309.91,-330.25 303.91,-324.25 303.91,-318.25 303.91,-318.25 303.91,-306.25 303.91,-306.25 303.91,-300.25 309.91,-294.25 315.91,-294.25 315.91,-294.25 460.09,-294.25 460.09,-294.25 466.09,-294.25 472.09,-300.25 472.09,-306.25 472.09,-306.25 472.09,-318.25 472.09,-318.25 472.09,-324.25 466.09,-330.25 460.09,-330.25"/>
<text xml:space="preserve" text-anchor="middle" x="388" y="-307.8" font-family="Helvetica,sans-Serif" font-size="11.00" fill="#1f2937">relay chunk seq=2 (terminal)</text>
</g>
<!-- agent_final&#45;&gt;runtime_final -->
<g id="edge16" class="edge">
<title>agent_final&#45;&gt;runtime_final</title>
<path fill="none" stroke="#64748b" stroke-width="1.2" d="M213.06,-379.55C248.22,-366.22 296.77,-347.82 333.81,-333.79"/>
<polygon fill="#64748b" stroke="#64748b" stroke-width="1.2" points="340.63,-331.2 334.81,-337.01 338.53,-332.1 333.65,-333.95 333.62,-333.86 333.58,-333.76 338.46,-331.92 332.42,-330.7 340.63,-331.2"/>
<text xml:space="preserve" text-anchor="middle" x="320.88" y="-351.45" font-family="Helvetica,sans-Serif" font-size="9.00" fill="#64748b">seq=2 more=false</text>
</g>
<!-- runtime_terminator -->
<g id="node10" class="node">
<title>runtime_terminator</title>
<path fill="white" stroke="#cbd5e1" d="M433.47,-213.75C433.47,-213.75 342.53,-213.75 342.53,-213.75 336.53,-213.75 330.53,-207.75 330.53,-201.75 330.53,-201.75 330.53,-189.75 330.53,-189.75 330.53,-183.75 336.53,-177.75 342.53,-177.75 342.53,-177.75 433.47,-177.75 433.47,-177.75 439.47,-177.75 445.47,-183.75 445.47,-189.75 445.47,-189.75 445.47,-201.75 445.47,-201.75 445.47,-207.75 439.47,-213.75 433.47,-213.75"/>
<text xml:space="preserve" text-anchor="middle" x="388" y="-191.3" font-family="Helvetica,sans-Serif" font-size="11.00" fill="#1f2937">forward job.result</text>
</g>
<!-- agent_terminator&#45;&gt;runtime_terminator -->
<g id="edge17" class="edge">
<title>agent_terminator&#45;&gt;runtime_terminator</title>
<path fill="none" stroke="#64748b" stroke-width="1.2" d="M167.68,-293.93C171.4,-276.06 179.89,-248.73 198.5,-233.75 217.27,-218.64 274.7,-208.84 321.46,-203.14"/>
<polygon fill="#64748b" stroke="#64748b" stroke-width="1.2" points="328.9,-202.26 321.85,-206.49 326.64,-202.63 321.47,-203.24 321.46,-203.14 321.44,-203.04 326.62,-202.43 321.06,-199.79 328.9,-202.26"/>
<text xml:space="preserve" text-anchor="middle" x="217.25" y="-234.95" font-family="Helvetica,sans-Serif" font-size="9.00" fill="#64748b">job.result</text>
</g>
<!-- client_terminator -->
<g id="node15" class="node">
<title>client_terminator</title>
<path fill="white" stroke="#cbd5e1" d="M910.22,-106C910.22,-106 775.78,-106 775.78,-106 769.78,-106 763.78,-100 763.78,-94 763.78,-94 763.78,-82 763.78,-82 763.78,-76 769.78,-70 775.78,-70 775.78,-70 910.22,-70 910.22,-70 916.22,-70 922.22,-76 922.22,-82 922.22,-82 922.22,-94 922.22,-94 922.22,-100 916.22,-106 910.22,-106"/>
<text xml:space="preserve" text-anchor="middle" x="843" y="-83.55" font-family="Helvetica,sans-Serif" font-size="11.00" fill="#1f2937">assemble decoded chunks</text>
</g>
<!-- agent_terminator&#45;&gt;client_terminator -->
<g id="edge23" class="edge">
<title>agent_terminator&#45;&gt;client_terminator</title>
<path fill="none" stroke="#f472b6" stroke-width="1.1" stroke-dasharray="5,2" d="M194.09,-293.86C217.79,-280.41 252.54,-262.31 285,-251.5 373.31,-222.08 415.38,-268.02 491,-213.75 523.53,-190.41 501.84,-157.8 534.75,-135 569.51,-110.92 676.74,-99.09 754.98,-93.54"/>
<polygon fill="#f472b6" stroke="#f472b6" stroke-width="1.1" points="762.07,-93.05 754.82,-96.93 759.67,-93.26 754.6,-93.61 754.59,-93.56 754.59,-93.52 759.67,-93.16 754.36,-90.2 762.07,-93.05"/>
<text xml:space="preserve" text-anchor="start" x="534.75" y="-193.12" font-family="Helvetica,sans-Serif" font-size="9.00" fill="#db2777">MUST NOT mix inline result with result_chunk (§8.4)</text>
</g>
<!-- runtime_1&#45;&gt;runtime_2 -->
<!-- client_1 -->
<g id="node11" class="node">
<title>client_1</title>
<path fill="white" stroke="#cbd5e1" d="M854.59,-501.75C854.59,-501.75 779.41,-501.75 779.41,-501.75 773.41,-501.75 767.41,-495.75 767.41,-489.75 767.41,-489.75 767.41,-477.75 767.41,-477.75 767.41,-471.75 773.41,-465.75 779.41,-465.75 779.41,-465.75 854.59,-465.75 854.59,-465.75 860.59,-465.75 866.59,-471.75 866.59,-477.75 866.59,-477.75 866.59,-489.75 866.59,-489.75 866.59,-495.75 860.59,-501.75 854.59,-501.75"/>
<text xml:space="preserve" text-anchor="middle" x="817" y="-479.3" font-family="Helvetica,sans-Serif" font-size="11.00" fill="#1f2937">allocate buffer</text>
</g>
<!-- runtime_1&#45;&gt;client_1 -->
<g id="edge22" class="edge">
<title>runtime_1&#45;&gt;client_1</title>
<path fill="none" stroke="#64748b" stroke-width="1.2" d="M444.08,-559.29C525.49,-543.02 675.69,-513 758.46,-496.45"/>
<polygon fill="#64748b" stroke="#64748b" stroke-width="1.2" points="765.79,-494.99 759.1,-499.76 763.57,-495.53 758.46,-496.55 758.44,-496.46 758.42,-496.36 763.53,-495.34 757.78,-493.15 765.79,-494.99"/>
<text xml:space="preserve" text-anchor="middle" x="632.99" y="-524.95" font-family="Helvetica,sans-Serif" font-size="9.00" fill="#64748b">result_id</text>
</g>
<!-- runtime_2&#45;&gt;runtime_relay -->
<!-- client_2 -->
<g id="node12" class="node">
<title>client_2</title>
<path fill="white" stroke="#cbd5e1" d="M879.09,-416C879.09,-416 770.91,-416 770.91,-416 764.91,-416 758.91,-410 758.91,-404 758.91,-404 758.91,-392 758.91,-392 758.91,-386 764.91,-380 770.91,-380 770.91,-380 879.09,-380 879.09,-380 885.09,-380 891.09,-386 891.09,-392 891.09,-392 891.09,-404 891.09,-404 891.09,-410 885.09,-416 879.09,-416"/>
<text xml:space="preserve" text-anchor="middle" x="825" y="-393.55" font-family="Helvetica,sans-Serif" font-size="11.00" fill="#1f2937">append chunk seq=0</text>
</g>
<!-- runtime_2&#45;&gt;client_2 -->
<g id="edge18" class="edge">
<title>runtime_2&#45;&gt;client_2</title>
<path fill="none" stroke="#64748b" stroke-width="1.2" d="M447.85,-471.28C526.49,-456.21 664.64,-429.73 750.12,-413.35"/>
<polygon fill="#64748b" stroke="#64748b" stroke-width="1.2" points="757.3,-411.97 750.57,-416.7 755.08,-412.5 749.96,-413.48 749.94,-413.39 749.92,-413.29 755.04,-412.31 749.3,-410.07 757.3,-411.97"/>
</g>
<!-- runtime_relay&#45;&gt;runtime_final -->
<!-- client_3 -->
<g id="node13" class="node">
<title>client_3</title>
<path fill="white" stroke="#cbd5e1" d="M879.09,-330.25C879.09,-330.25 770.91,-330.25 770.91,-330.25 764.91,-330.25 758.91,-324.25 758.91,-318.25 758.91,-318.25 758.91,-306.25 758.91,-306.25 758.91,-300.25 764.91,-294.25 770.91,-294.25 770.91,-294.25 879.09,-294.25 879.09,-294.25 885.09,-294.25 891.09,-300.25 891.09,-306.25 891.09,-306.25 891.09,-318.25 891.09,-318.25 891.09,-324.25 885.09,-330.25 879.09,-330.25"/>
<text xml:space="preserve" text-anchor="middle" x="825" y="-307.8" font-family="Helvetica,sans-Serif" font-size="11.00" fill="#1f2937">append chunk seq=1</text>
</g>
<!-- runtime_relay&#45;&gt;client_3 -->
<g id="edge19" class="edge">
<title>runtime_relay&#45;&gt;client_3</title>
<path fill="none" stroke="#64748b" stroke-width="1.2" d="M456.28,-383.91C536.04,-368.63 667.55,-343.43 750.06,-327.61"/>
<polygon fill="#64748b" stroke="#64748b" stroke-width="1.2" points="757.19,-326.25 750.46,-330.97 754.96,-326.77 749.85,-327.75 749.83,-327.66 749.81,-327.56 754.93,-326.58 749.19,-324.34 757.19,-326.25"/>
</g>
<!-- runtime_final&#45;&gt;runtime_terminator -->
<!-- client_final -->
<g id="node14" class="node">
<title>client_final</title>
<path fill="white" stroke="#cbd5e1" d="M927.47,-213.75C927.47,-213.75 770.53,-213.75 770.53,-213.75 764.53,-213.75 758.53,-207.75 758.53,-201.75 758.53,-201.75 758.53,-189.75 758.53,-189.75 758.53,-183.75 764.53,-177.75 770.53,-177.75 770.53,-177.75 927.47,-177.75 927.47,-177.75 933.47,-177.75 939.47,-183.75 939.47,-189.75 939.47,-189.75 939.47,-201.75 939.47,-201.75 939.47,-207.75 933.47,-213.75 927.47,-213.75"/>
<text xml:space="preserve" text-anchor="middle" x="849" y="-191.3" font-family="Helvetica,sans-Serif" font-size="11.00" fill="#1f2937">append chunk seq=2 (terminal)</text>
</g>
<!-- runtime_final&#45;&gt;client_final -->
<g id="edge20" class="edge">
<title>runtime_final&#45;&gt;client_final</title>
<path fill="none" stroke="#64748b" stroke-width="1.2" d="M458.27,-293.8C542.3,-272.93 682.57,-238.09 770.21,-216.32"/>
<polygon fill="#64748b" stroke="#64748b" stroke-width="1.2" points="777.37,-214.54 770.9,-219.63 775.17,-215.19 770.11,-216.45 770.09,-216.35 770.06,-216.25 775.12,-215 769.27,-213.07 777.37,-214.54"/>
</g>
<!-- runtime_terminator&#45;&gt;client_terminator -->
<g id="edge21" class="edge">
<title>runtime_terminator&#45;&gt;client_terminator</title>
<path fill="none" stroke="#64748b" stroke-width="1.2" d="M404.99,-177.27C422.04,-160.94 449.88,-137.43 479,-126 527.54,-106.94 663.57,-97.11 754.88,-92.51"/>
<polygon fill="#64748b" stroke="#64748b" stroke-width="1.2" points="762.11,-92.15 754.79,-95.89 759.83,-92.36 754.63,-92.62 754.62,-92.52 754.62,-92.42 759.82,-92.16 754.46,-89.15 762.11,-92.15"/>
</g>
<!-- client_1&#45;&gt;client_2 -->
<!-- client_2&#45;&gt;client_3 -->
<!-- client_3&#45;&gt;client_final -->
<!-- client_final&#45;&gt;client_terminator -->
</g>
</svg>
